HIERARCHY
ROOT hip
{
  OFFSET 0 0 0
  CHANNELS 6 Xposition Yposition Zposition Zrotation Yrotation Xrotation
  JOINT abdomen
  {
    OFFSET 0 20.6881 -0.73152
    CHANNELS 3 Zrotation Xrotation Yrotation
    JOINT chest
    {
      OFFSET 0 11.7043 -0.48768
      CHANNELS 3 Zrotation Xrotation Yrotation
      JOINT neck
      {
        OFFSET 0 22.1894 -2.19456
        CHANNELS 3 Zrotation Xrotation Yrotation
        JOINT head
        {
          OFFSET -0.24384 7.07133 1.2192
          CHANNELS 3 Zrotation Xrotation Yrotation
          JOINT leftEye
          {
            OFFSET 4.14528 8.04674 8.04672
            CHANNELS 3 Zrotation Xrotation Yrotation
            End Site
            {
              OFFSET 1 0 0
            }
          }
          JOINT rightEye
          {
            OFFSET -3.6576 8.04674 8.04672
            CHANNELS 3 Zrotation Xrotation Yrotation
            End Site
            {
              OFFSET 1 0 0
            }
          }
        }
      }
      JOINT rCollar
      {
        OFFSET -2.68224 19.2634 -4.8768
        CHANNELS 3 Zrotation Xrotation Yrotation
        JOINT rShldr
        {
          OFFSET -8.77824 -1.95073 1.46304
          CHANNELS 3 Zrotation Xrotation Yrotation
          JOINT rForeArm
          {
            OFFSET -28.1742 -1.7115 0.48768
            CHANNELS 3 Zrotation Xrotation Yrotation
            JOINT rHand
            {
              OFFSET -22.5879 0.773209 7.07136
              CHANNELS 3 Zrotation Xrotation Yrotation
              JOINT rThumb1
              {
                OFFSET -1.2192 -0.487915 3.41376
                CHANNELS 3 Zrotation Xrotation Yrotation
                JOINT rThumb2
                {
                  OFFSET -3.37035 -0.52449 3.41376
                  CHANNELS 3 Zrotation Xrotation Yrotation
                  End Site
                  {
                    OFFSET -1.78271 -1.18214 1.43049
                  }
                }
              }
              JOINT rIndex1
              {
                OFFSET -7.75947 0.938293 5.60832
                CHANNELS 3 Zrotation Xrotation Yrotation
                JOINT rIndex2
                {
                  OFFSET -2.54057 -0.884171 1.56538
                  CHANNELS 3 Zrotation Xrotation Yrotation
                  End Site
                  {
                    OFFSET -1.62519 -0.234802 1.16502
                  }
                }
              }
              JOINT rMid1
              {
                OFFSET -8.24714 1.18213 3.41376
                CHANNELS 3 Zrotation Xrotation Yrotation
                JOINT rMid2
                {
                  OFFSET -3.10165 -0.590103 1.0647
                  CHANNELS 3 Zrotation Xrotation Yrotation
                  End Site
                  {
                    OFFSET -2.48547 -0.328903 0.83742
                  }
                }
              }
              JOINT rRing1
              {
                OFFSET -8.82822 0.546677 1.51678
                CHANNELS 3 Zrotation Xrotation Yrotation
                JOINT rRing2
                {
                  OFFSET -2.60934 -0.819778 -0.0198488
                  CHANNELS 3 Zrotation Xrotation Yrotation
                  End Site
                  {
                    OFFSET -2.33842 -0.294052 0.168128
                  }
                }
              }
              JOINT rPinky1
              {
                OFFSET -8.27202 -0.0477905 -0.4584
                CHANNELS 3 Zrotation Xrotation Yrotation
                JOINT rPinky2
                {
                  OFFSET -1.82734 -0.647385 -0.700984
                  CHANNELS 3 Zrotation Xrotation Yrotation
                  End Site
                  {
                    OFFSET -1.69225 -0.51767 -0.607171
                  }
                }
              }
            }
          }
        }
      }
      JOINT lCollar
      {
        OFFSET 2.68224 19.2634 -4.8768
        CHANNELS 3 Zrotation Xrotation Yrotation
        JOINT lShldr
        {
          OFFSET 8.77824 -1.95073 1.46304
          CHANNELS 3 Zrotation Xrotation Yrotation
          JOINT lForeArm
          {
            OFFSET 28.1742 -1.7115 0.48768
            CHANNELS 3 Zrotation Xrotation Yrotation
            JOINT lHand
            {
              OFFSET 22.5879 0.773209 7.07136
              CHANNELS 3 Zrotation Xrotation Yrotation
              JOINT lThumb1
              {
                OFFSET 1.2192 -0.487915 3.41376
                CHANNELS 3 Zrotation Xrotation Yrotation
                JOINT lThumb2
                {
                  OFFSET 3.37035 -0.52449 3.41376
                  CHANNELS 3 Zrotation Xrotation Yrotation
                  End Site
                  {
                    OFFSET 1.78271 -1.18214 1.43049
                  }
                }
              }
              JOINT lIndex1
              {
                OFFSET 7.75947 0.938293 5.60832
                CHANNELS 3 Zrotation Xrotation Yrotation
                JOINT lIndex2
                {
                  OFFSET 2.54057 -0.884171 1.56538
                  CHANNELS 3 Zrotation Xrotation Yrotation
                  End Site
                  {
                    OFFSET 1.62519 -0.234802 1.16502
                  }
                }
              }
              JOINT lMid1
              {
                OFFSET 8.24714 1.18213 3.41376
                CHANNELS 3 Zrotation Xrotation Yrotation
                JOINT lMid2
                {
                  OFFSET 3.10165 -0.590103 1.0647
                  CHANNELS 3 Zrotation Xrotation Yrotation
                  End Site
                  {
                    OFFSET 2.48547 -0.328903 0.83742
                  }
                }
              }
              JOINT lRing1
              {
                OFFSET 8.82822 0.546677 1.51678
                CHANNELS 3 Zrotation Xrotation Yrotation
                JOINT lRing2
                {
                  OFFSET 2.60934 -0.819778 -0.0198488
                  CHANNELS 3 Zrotation Xrotation Yrotation
                  End Site
                  {
                    OFFSET 2.33842 -0.294052 0.168128
                  }
                }
              }
              JOINT lPinky1
              {
                OFFSET 8.27202 -0.0477905 -0.4584
                CHANNELS 3 Zrotation Xrotation Yrotation
                JOINT lPinky2
                {
                  OFFSET 1.82734 -0.647385 -0.700984
                  CHANNELS 3 Zrotation Xrotation Yrotation
                  End Site
                  {
                    OFFSET 1.69225 -0.51767 -0.607171
                  }
                }
              }
            }
          }
        }
      }
    }
  }
  JOINT rButtock
  {
    OFFSET -8.77824 4.35084 1.2192
    CHANNELS 3 Zrotation Xrotation Yrotation
    JOINT rThigh
    {
      OFFSET 0 -1.70687 -2.19456
      CHANNELS 3 Zrotation Xrotation Yrotation
      JOINT rShin
      {
        OFFSET 0 -36.8199 0.73152
        CHANNELS 3 Zrotation Xrotation Yrotation
        JOINT rFoot
        {
          OFFSET 0.73152 -45.1104 -5.12064
          CHANNELS 3 Zrotation Xrotation Yrotation
          End Site
          {
            OFFSET -1.1221 -3.69964 12.103
          }
        }
      }
    }
  }
  JOINT lButtock
  {
    OFFSET 8.77824 4.35084 1.2192
    CHANNELS 3 Zrotation Xrotation Yrotation
    JOINT lThigh
    {
      OFFSET 0 -1.70687 -2.19456
      CHANNELS 3 Zrotation Xrotation Yrotation
      JOINT lShin
      {
        OFFSET 0 -36.8199 0.73152
        CHANNELS 3 Zrotation Xrotation Yrotation
        JOINT lFoot
        {
          OFFSET -0.73152 -45.1104 -5.12064
          CHANNELS 3 Zrotation Xrotation Yrotation
          End Site
          {
            OFFSET 1.1221 -3.69964 12.103
          }
        }
      }
    }
  }
}
MOTION
Frames:	4
Frame Time:	0.03333
-0.9893179999999999 46.031 196.593 -17.274696350097656 -24.817895889282227 16.58800506591797 11.18399429321289 4.732023239135742 4.366853713989258 1.6643203496932983 -7.786403179168701 1.0880934000015259 -0.1710033267736435 12.281800270080566 6.213265895843506 5.967141628265381 -23.8456974029541 13.584303855895996 -0.0 0.0 -0.0 -0.0 0.0 -0.0 -0.0 0.0 -0.0 107.62800598144531 46.30112838745117 -57.41389083862305 -27.383705139160156 -42.89300537109375 89.28240203857422 -8.344667434692383 -60.39441680908203 -14.30960750579834 -0.0 0.0 -0.0 -0.0 0.0 -0.0 -0.0 0.0 -0.0 7.730902194976807 5.47491455078125 0.4173222780227661 -0.0 0.0 -0.0 2.905566453933716 0.9650754332542419 0.10300818830728531 -0.0 0.0 -0.0 10.278596878051758 0.7318810820579529 0.026273518800735474 -0.0 0.0 -0.0 2.221662998199463 -0.7334509491920471 -0.20832103490829468 -0.0 0.0 -0.0 -61.472503662109375 -21.78559684753418 -78.41230010986328 7.441047191619873 -2.728151798248291 -13.083199501037598 12.099088668823242 66.10940551757812 -18.49907875061035 -0.0 0.0 -0.0 -0.0 0.0 -0.0 -0.0 0.0 -0.0 -7.730902194976807 5.47491455078125 -0.4173222780227661 -0.0 0.0 -0.0 -2.905566453933716 0.9650754332542419 -0.10300818830728531 -0.0 0.0 -0.0 -10.278596878051758 0.7318810820579529 -0.026273518800735474 -0.0 0.0 -0.0 -2.221662998199463 -0.7334509491920471 0.20832103490829468 -0.0 0.0 -0.0 -12.744501113891602 12.837791442871094 -4.551192283630371 0.12985152006149292 29.36639404296875 2.685570240020752 -8.038338661193848 -16.140201568603516 -32.729095458984375 0.0 0.0 0.0 99.00819396972656 -55.03600311279297 88.26779174804688 8.591404914855957 82.8835220336914 -7.931180000305176 -1.9428035020828247 -1.5003379583358765 -12.247882843017578
-0.9856240000000001 46.0202 196.607 -17.279207229614258 -24.857196807861328 16.621091842651367 11.172301292419434 4.71164083480835 4.382750511169434 1.6534178256988525 -7.783908843994141 1.0914386510849 -0.1466132551431656 12.240609169006348 6.217482089996338 5.967373847961426 -23.769601821899414 13.586599349975586 -0.0 0.0 -0.0 -0.0 0.0 -0.0 -0.0 0.0 -0.0 107.57697296142578 46.25225067138672 -57.31003189086914 -27.38789939880371 -42.879798889160156 89.25669860839844 -8.349527359008789 -60.3695068359375 -14.30538558959961 -0.0 0.0 -0.0 -0.0 0.0 -0.0 -0.0 0.0 -0.0 7.730902194976807 5.47491455078125 0.4173222780227661 -0.0 0.0 -0.0 2.905566453933716 0.9650754332542419 0.10300818830728531 -0.0 0.0 -0.0 10.278596878051758 0.7318810820579529 0.026273518800735474 -0.0 0.0 -0.0 2.221662998199463 -0.7334509491920471 -0.20832103490829468 -0.0 0.0 -0.0 -61.41409683227539 -21.821495056152344 -78.36280059814453 7.425136089324951 -2.7240982055664062 -13.055301666259766 12.09664249420166 66.13228607177734 -18.505441665649414 -0.0 0.0 -0.0 -0.0 0.0 -0.0 -0.0 0.0 -0.0 -7.730902194976807 5.47491455078125 -0.4173222780227661 -0.0 0.0 -0.0 -2.905566453933716 0.9650754332542419 -0.10300818830728531 -0.0 0.0 -0.0 -10.278596878051758 0.7318810820579529 -0.026273518800735474 -0.0 0.0 -0.0 -2.221662998199463 -0.7334509491920471 0.20832103490829468 -0.0 0.0 -0.0 -12.764496803283691 12.801803588867188 -4.5499796867370605 0.12890101969242096 29.359100341796875 2.6840896606445312 -8.033281326293945 -16.140607833862305 -32.71920394897461 0.0 0.0 0.0 99.02699279785156 -54.994686126708984 88.29209899902344 8.617781639099121 82.90535736083984 -7.95805549621582 -1.949029803276062 -1.5289229154586792 -12.243498802185059
-0.9823499999999998 46.0086 196.614 -17.280990600585938 -24.880407333374023 16.641202926635742 11.160585403442383 4.713632583618164 4.376612186431885 1.6401925086975098 -7.797574520111084 1.0888311862945557 -0.12156195938587189 12.207199096679688 6.223255157470703 5.939474105834961 -23.710697174072266 13.586910247802734 -0.0 0.0 -0.0 -0.0 0.0 -0.0 -0.0 -0.0 -0.0 107.56999969482422 46.22726821899414 -57.25262451171875 -27.3883056640625 -42.878501892089844 89.25420379638672 -8.336674690246582 -60.3446044921875 -14.290589332580566 -0.0 0.0 0.0 -0.0 0.0 0.0 -0.0 0.0 0.0 7.730902194976807 5.47491455078125 0.4173222780227661 -0.0 0.0 0.0 2.905566453933716 0.9650754332542419 0.10300818830728531 -0.0 0.0 0.0 10.278596878051758 0.7318810820579529 0.026273518800735474 -0.0 0.0 0.0 2.221662998199463 -0.7334509491920471 -0.20832103490829468 -0.0 -0.0 -0.0 -61.291297912597656 -21.847002029418945 -78.27139282226562 7.4257378578186035 -2.723750352859497 -13.056205749511719 12.148343086242676 66.16889953613281 -18.552927017211914 -0.0 0.0 -0.0 -0.0 0.0 -0.0 -0.0 0.0 -0.0 -7.730902194976807 5.47491455078125 -0.4173222780227661 -0.0 0.0 -0.0 -2.905566453933716 0.9650754332542419 -0.10300818830728531 -0.0 0.0 -0.0 -10.278596878051758 0.7318810820579529 -0.026273518800735474 -0.0 0.0 -0.0 -2.221662998199463 -0.7334509491920471 0.20832103490829468 -0.0 0.0 -0.0 -12.785696029663086 12.763896942138672 -4.550365447998047 0.1286313682794571 29.390308380126953 2.6852407455444336 -8.044201850891113 -16.161518096923828 -32.717899322509766 0.0 0.0 0.0 99.05829620361328 -54.97418975830078 88.33440399169922 8.644350051879883 82.927978515625 -7.983623504638672 -1.9521054029464722 -1.5401339530944824 -12.246207237243652
-0.979755 45.9952 196.622 -17.26979637145996 -24.87930679321289 16.644691467285156 11.148908615112305 4.738207817077637 4.348222255706787 1.6248960494995117 -7.8274054527282715 1.0801458358764648 -0.09583941847085953 12.181589126586914 6.230654239654541 5.883386135101318 -23.66899871826172 13.585193634033203 -0.0 0.0 -0.0 -0.0 0.0 -0.0 -0.0 0.0 0.0 107.60401153564453 46.22642135620117 -57.241695404052734 -27.384794235229492 -42.88909912109375 89.27490234375 -8.323101997375488 -60.318206787109375 -14.274969100952148 -0.0 0.0 0.0 -0.0 0.0 0.0 -0.0 0.0 0.0 7.730902194976807 5.47491455078125 0.4173222780227661 -0.0 0.0 0.0 2.905566453933716 0.9650754332542419 0.10300818830728531 -0.0 0.0 0.0 10.278596878051758 0.7318810820579529 0.026273518800735474 -0.0 0.0 0.0 2.221662998199463 -0.7334509491920471 -0.20832103490829468 -0.0 0.0 0.0 -61.104103088378906 -21.861797332763672 -78.1375961303711 7.442796230316162 -2.727261781692505 -13.085887908935547 12.194872856140137 66.22478485107422 -18.603769302368164 0.0 0.0 -0.0 0.0 0.0 -0.0 0.0 0.0 -0.0 -7.730902194976807 5.47491455078125 -0.4173222780227661 0.0 0.0 -0.0 -2.905566453933716 0.9650754332542419 -0.10300818830728531 0.0 0.0 -0.0 -10.278596878051758 0.7318810820579529 -0.026273518800735474 0.0 0.0 -0.0 -2.221662998199463 -0.7334509491920471 0.20832103490829468 -0.0 0.0 -0.0 -12.808094024658203 12.724006652832031 -4.552344799041748 0.1290280818939209 29.46019744873047 2.689025640487671 -8.07109546661377 -16.202688217163086 -32.72540283203125 0.0 0.0 0.0 99.102294921875 -54.974491119384766 88.39479064941406 8.673235893249512 82.95150756835938 -8.01010513305664 -1.9521573781967163 -1.5340806245803833 -12.255996704101562
